# xmcd CD database file
#
# Track frame offsets:
#	150
#	14725
#	34492
#	80940
#	101717
#	122860
#	143442
#	185480
#	202230
#	223682
#
# Disc length: 3165 seconds
#
# Revision: 0
# Processed by: cddbd v1.5PL3 Copyright (c) Steve Scherf et al.
# Submitted via: CDex 1.51
#
DISCID=9f0c5b0a
DTITLE=Beto Levato - Beto Levato
DYEAR=1995
DGENRE=Blues
TTITLE0=I Can't Stop
TTITLE1=Linda Negra Tejana
TTITLE2=Ain't Gonna Fall
TTITLE3=If I Could See Your Eyes
TTITLE4=The Last Time
TTITLE5=Hot Tamale
TTITLE6=El Color de Sangre
TTITLE7=Mouth Full of Lies
TTITLE8=Whiskey, Pain and Heartache
TTITLE9=El Pobre
EXTD=YEAR: 1995
EXTT0=
EXTT1=
EXTT2=
EXTT3=
EXTT4=
EXTT5=
EXTT6=
EXTT7=
EXTT8=
EXTT9=
PLAYORDER=
